<svg width="49" height="46" viewBox="0 0 49 46" fill="none" xmlns="http://www.w3.org/2000/svg">
<path fill-rule="evenodd" clip-rule="evenodd" d="M21.4319 25.7327C20.7068 26.3462 20.2049 26.9597 19.8145 27.6847C21.2646 28.5771 20.3164 35.4373 24.611 35.6046C28.0132 35.772 27.0651 28.8002 28.9614 27.6847C28.6825 26.9597 28.069 26.3462 27.3439 25.7327C25.5034 26.0115 23.4955 26.0115 21.4877 25.7327H21.4319Z" fill="#FED15A"/>
<path fill-rule="evenodd" clip-rule="evenodd" d="M38.8334 15.4707C39.3912 15.2476 40.0605 15.4707 40.2836 16.0285C40.5067 16.5862 40.2836 17.2555 39.7258 17.4786L34.8735 19.5422C34.3158 19.7653 33.6465 19.5422 33.4234 18.9845C33.2003 18.4268 33.4234 17.7575 33.9811 17.5344L38.8334 15.4707Z" fill="#ACB5BC"/>
<path fill-rule="evenodd" clip-rule="evenodd" d="M24.8899 3.64634C24.8341 3.59056 24.7783 3.53479 24.7225 3.42324C24.6668 3.47902 24.611 3.53479 24.5552 3.64634L12.2292 17.3109C11.8388 17.7571 11.1137 17.8129 10.6675 17.3667C10.2214 16.9763 10.1656 16.2512 10.6118 15.805L22.9378 2.14045C23.3282 1.69425 24.0533 1.63848 24.4995 2.08467C24.611 2.14045 24.6668 2.25199 24.7225 2.36354C24.7783 2.25199 24.8341 2.14045 24.9456 2.08467C25.3918 1.69425 26.1169 1.69425 26.5073 2.14045L38.8333 15.805C39.2237 16.2512 39.2237 16.9763 38.7775 17.3667C38.3314 17.7571 37.6063 17.7571 37.2159 17.3109L24.8899 3.64634Z" fill="#ACB5BC"/>
<path fill-rule="evenodd" clip-rule="evenodd" d="M32.7542 12.4033C32.6985 11.7898 33.2004 11.2878 33.8139 11.232C34.4275 11.1762 34.9294 11.6782 34.9852 12.2917L35.3198 18.5384C35.3756 19.1519 34.8736 19.6539 34.2601 19.7096C33.6466 19.7654 33.1447 19.2635 33.0889 18.6499L32.7542 12.4033Z" fill="#ACB5BC"/>
<path fill-rule="evenodd" clip-rule="evenodd" d="M9.8312 17.4786C9.27346 17.2555 8.9946 16.5862 9.27346 16.0285C9.49656 15.4707 10.1658 15.1919 10.7236 15.4707L15.5759 17.5344C16.1336 17.7575 16.4125 18.4267 16.1336 18.9845C15.9105 19.5422 15.2413 19.8211 14.6835 19.5422L9.8312 17.4786Z" fill="#ACB5BC"/>
<path fill-rule="evenodd" clip-rule="evenodd" d="M19.2573 20.3228C18.8112 20.4344 18.5881 21.1037 18.8112 21.8845C18.9785 22.6653 19.4804 23.1673 19.9266 23.0558C20.3728 22.9442 20.5959 22.2749 20.3728 21.4941C20.2055 20.7133 19.7035 20.2113 19.2573 20.3228Z" fill="#FED15A"/>
<path fill-rule="evenodd" clip-rule="evenodd" d="M28.962 23.1673C29.4082 23.2789 29.9101 22.7211 30.0775 21.9961C30.2448 21.2152 30.0775 20.546 29.6313 20.4344C29.1851 20.3229 28.6831 20.8806 28.5158 21.6057C28.3485 22.3865 28.5158 23.0558 28.962 23.1673Z" fill="#FED15A"/>
<path fill-rule="evenodd" clip-rule="evenodd" d="M35.097 28.0756L29.7427 27.6852L27.6233 26.012C27.7349 26.5139 27.456 26.9601 27.456 28.8007C27.456 30.5854 26.1174 34.2665 24.4442 34.2665C22.771 34.2665 21.4324 30.5854 21.4324 28.8007C21.4324 27.0159 21.042 26.737 21.0978 26.1793L19.2015 27.6852L13.8472 28.0756L13.2337 31.7009C13.2337 31.7009 13.0106 34.5454 14.5722 36.2743C14.5722 36.2743 16.1897 40.7363 17.3052 41.4613C17.3052 41.4613 17.9187 42.9672 17.6956 45.0866H24.5H31.1928C30.9697 42.9672 31.5833 41.4613 31.5833 41.4613C32.6987 40.7363 34.3162 36.2743 34.3162 36.2743C35.8221 34.5454 35.6547 31.7009 35.6547 31.7009L35.1528 28.0756H35.097Z" fill="#87A0D1"/>
<path fill-rule="evenodd" clip-rule="evenodd" d="M20.3168 27.1831C18.9782 27.4062 18.4762 26.458 18.4762 26.458C16.0222 24.004 12.62 25.733 12.62 25.733C9.55243 22.6654 6.31755 25.4541 6.31755 25.4541C6.70797 25.1752 7.20993 23.1116 7.20993 23.1116C7.93499 20.6576 9.32934 18.5381 9.32934 18.5381C9.71975 17.5342 10.8352 17.8131 10.8352 17.8131C11.3372 18.3151 11.9507 18.4266 11.9507 18.4266C13.0662 18.9286 13.2893 18.6497 13.2893 18.6497C13.4008 19.3748 13.7912 19.1517 13.7912 19.1517C14.6836 18.8728 14.1817 18.1477 14.1817 18.1477C13.9028 17.7573 14.4605 17.6458 14.4605 17.6458C14.9625 17.5342 14.8509 17.2553 14.8509 17.2553L14.1259 14.5224C13.122 14.132 10.389 14.8013 10.389 14.8013C8.15808 14.9128 6.93106 17.3111 6.93106 17.3111C6.93106 17.3111 -0.37531 24.2828 0.0151071 26.8484C0.405524 29.3583 3.97505 30.1949 3.97505 30.1949C5.36939 31.1988 7.04261 31.7008 7.04261 31.7008C10.1659 32.4258 13.122 31.5892 13.122 31.5892C12.8431 33.5413 13.847 35.3261 14.4605 36.1627C15.8549 35.6607 20.3168 32.9278 20.261 27.1273L20.3168 27.1831Z" fill="#FED15A"/>
<path fill-rule="evenodd" clip-rule="evenodd" d="M5.09125 25.6769C5.09125 25.6769 5.09125 25.5654 4.9797 25.3981C4.86816 25.175 4.86816 25.0077 4.75661 24.673C4.75661 24.3941 4.64506 23.948 4.75661 23.5575C4.75661 23.1671 4.9797 22.7209 5.03548 22.3305C5.25857 21.9401 5.42589 21.4939 5.64899 21.215C5.87208 20.9362 6.15095 20.6015 6.37405 20.3784C6.87601 19.988 7.26643 19.8765 7.26643 19.8765C7.26643 19.8765 7.15488 19.988 7.04333 20.0996C6.93179 20.2111 6.76447 20.3784 6.54137 20.7131C6.15095 21.215 5.70476 21.8285 5.42589 22.5536C5.31435 22.944 5.14702 23.2787 5.03548 23.6691C4.92393 24.0595 4.92393 24.3941 4.81238 24.673C4.81238 24.9519 4.81238 25.175 4.81238 25.3981C5.03548 25.6212 5.03548 25.6769 5.03548 25.6769H5.09125Z" fill="#FAB74B"/>
<path fill-rule="evenodd" clip-rule="evenodd" d="M20.3165 27.1828C18.9779 27.4059 18.476 26.4578 18.476 26.4578C16.0219 24.0037 12.6197 25.7327 12.6197 25.7327C9.55217 22.6652 6.31728 25.4539 6.31728 25.4539C6.7077 25.175 7.20967 23.1114 7.20967 23.1114C7.93473 20.6573 9.32907 18.5379 9.32907 18.5379C9.32907 18.4264 9.44062 18.3148 9.55217 18.259C9.2733 18.3706 9.0502 18.5379 8.82711 18.9841C8.82711 18.9841 7.43276 21.1035 6.7077 23.5575C6.7077 23.5575 6.20574 25.5096 5.87109 25.9C5.87109 25.9 9.10598 23.0556 12.1735 26.1789C12.1735 26.1789 15.6315 24.4499 18.0298 26.904C18.0298 26.904 18.5318 27.7964 19.8703 27.629C19.9819 31.7005 17.7509 34.2103 15.9104 35.6605C17.6394 34.3219 20.3723 31.7005 20.2607 27.2386L20.3165 27.1828Z" fill="#232021" fill-opacity="0.101961"/>
<path fill-rule="evenodd" clip-rule="evenodd" d="M28.627 27.1831C29.9655 27.4062 30.4675 26.458 30.4675 26.458C32.9215 24.004 36.3237 25.733 36.3237 25.733C39.3913 22.6654 42.6262 25.4541 42.6262 25.4541C42.2358 25.0637 41.7896 23.1116 41.7896 23.1116C41.0645 20.6576 39.6702 18.5381 39.6702 18.5381C39.2798 17.5342 38.1643 17.8131 38.1643 17.8131C37.6623 18.3151 37.0488 18.4266 37.0488 18.4266C35.9333 18.9286 35.7102 18.6497 35.7102 18.6497C35.5987 19.3748 35.2083 19.1517 35.2083 19.1517C34.3159 18.8728 34.8178 18.1477 34.8178 18.1477C35.0967 17.7573 34.539 17.6458 34.539 17.6458C34.037 17.5342 34.1486 17.2553 34.1486 17.2553L34.8736 14.5224C35.8776 14.132 38.6105 14.8013 38.6105 14.8013C40.8414 14.9128 42.0684 17.3111 42.0684 17.3111C42.0684 17.3111 49.3748 24.2828 48.9844 26.8484C48.594 29.3583 45.0245 30.1949 45.0245 30.1949C43.6301 31.1988 41.9569 31.7008 41.9569 31.7008C38.8336 32.4258 35.8776 31.5892 35.8776 31.5892C36.1564 33.5413 35.1525 35.3261 34.539 36.1627C33.0331 35.6607 28.5712 32.9278 28.6827 27.1273L28.627 27.1831Z" fill="#FED15A"/>
<path fill-rule="evenodd" clip-rule="evenodd" d="M43.8529 25.6769C43.8529 25.6769 43.8529 25.5654 43.9645 25.3981C44.076 25.175 44.076 25.0077 44.1876 24.673C44.1876 24.3941 44.2991 23.948 44.1876 23.5575C44.1876 23.1671 43.9645 22.7209 43.9087 22.3305C43.6856 21.9401 43.5183 21.4939 43.2952 21.215C43.0721 20.9362 42.7932 20.6015 42.5701 20.3784C42.0682 19.988 41.6777 19.8765 41.6777 19.8765C41.6777 19.8765 41.7893 19.988 41.9008 20.0996C42.0124 20.2111 42.1797 20.3784 42.4028 20.7131C42.7932 21.215 43.2394 21.8285 43.5183 22.5536C43.6298 22.944 43.7971 23.2787 43.9087 23.6691C44.0202 24.0595 44.0202 24.3941 44.1318 24.673C44.1318 24.9519 44.1318 25.175 44.1318 25.3981C43.9087 25.6212 43.9087 25.6769 43.9087 25.6769H43.8529Z" fill="#FAB74B"/>
<path fill-rule="evenodd" clip-rule="evenodd" d="M28.6264 27.1828C29.9649 27.4059 30.4669 26.4578 30.4669 26.4578C32.9209 24.0037 36.3231 25.7327 36.3231 25.7327C39.3907 22.6652 42.6256 25.4539 42.6256 25.4539C42.2352 25.0634 41.789 23.1114 41.789 23.1114C41.0639 20.6573 39.6696 18.5379 39.6696 18.5379C39.6696 18.4264 39.558 18.3148 39.4465 18.259C39.7253 18.3706 39.9484 18.5379 40.1715 18.9841C40.1715 18.9841 41.5659 21.1035 42.2909 23.5575C42.2909 23.5575 42.7929 25.5096 43.1276 25.9C43.1276 25.9 39.8927 23.0556 36.8251 26.1789C36.8251 26.1789 33.3671 24.4499 30.9689 26.904C30.9689 26.904 30.4669 27.7964 29.1283 27.629C29.0168 31.7005 31.2477 34.2103 33.0883 35.6605C31.2477 34.3219 28.5148 31.7005 28.6264 27.2386V27.1828Z" fill="#232021" fill-opacity="0.101961"/>
<path fill-rule="evenodd" clip-rule="evenodd" d="M25.7828 14.5223C21.544 13.5184 21.3209 15.8609 21.3209 15.8609C21.3209 15.8609 17.7514 16.8091 19.7592 22.6095C19.7592 22.7769 19.7592 22.8884 19.815 22.9442C20.0381 23.5577 20.9863 25.0636 21.3209 25.7329C21.6555 26.4579 25.4482 26.5137 26.731 26.1233C27.7907 25.7886 28.7946 23.8366 29.185 22.8884C29.7985 22.4422 30.4678 19.7651 29.9101 18.3149C29.185 16.3629 27.7907 14.857 25.8386 14.4666L25.7828 14.5223Z" fill="#3F596C"/>
<path fill-rule="evenodd" clip-rule="evenodd" d="M14.5719 12.2911C14.6277 11.6776 15.1297 11.2314 15.7432 11.2314C16.3567 11.2872 16.8029 11.7892 16.8029 12.4027L16.4683 18.6494C16.4125 19.2629 15.9105 19.7091 15.297 19.7091C14.6835 19.6533 14.2373 19.1513 14.2373 18.5378L14.5719 12.2911Z" fill="#ACB5BC"/>
<path fill-rule="evenodd" clip-rule="evenodd" d="M24.778 4.59465C25.782 4.59465 26.6186 3.75804 26.6186 2.75411C26.6186 1.75018 25.782 0.913574 24.778 0.913574C23.7741 0.913574 22.9375 1.75018 22.9375 2.75411C22.9375 3.75804 23.7741 4.59465 24.778 4.59465Z" fill="#ACB5BC"/>
</svg>
